<svg width="48" height="48" viewBox="0 0 48 48" fill="none" xmlns="http://www.w3.org/2000/svg">
<g clip-path="url(#clip0_1_303)">
<path d="M38.3997 4.596H25.1157L26.2557 3.396C26.5104 3.10951 26.6457 2.73639 26.634 2.35326C26.6222 1.97011 26.4642 1.60603 26.1923 1.33575C25.9205 1.06547 25.5555 0.909511 25.1724 0.899887C24.7892 0.890263 24.4169 1.02771 24.1317 1.284L20.5317 4.884C20.3921 5.02333 20.2812 5.18886 20.2056 5.37109C20.13 5.55333 20.091 5.7487 20.091 5.946C20.091 6.14331 20.13 6.33867 20.2056 6.52091C20.2812 6.70314 20.3921 6.86866 20.5317 7.008L24.1317 10.608C24.2715 10.749 24.4379 10.8609 24.6213 10.9371C24.8046 11.0133 25.0013 11.0524 25.1997 11.052C25.3967 11.0535 25.5918 11.0149 25.7735 10.9385C25.955 10.8622 26.1191 10.7498 26.2557 10.608C26.3951 10.4697 26.5056 10.3052 26.5811 10.1239C26.6565 9.94271 26.6954 9.74832 26.6954 9.552C26.6954 9.35568 26.6565 9.16131 26.5811 8.98007C26.5056 8.79884 26.3951 8.63432 26.2557 8.496L25.3077 7.548H38.3997C38.9558 7.55115 39.4881 7.77342 39.8813 8.16655C40.2744 8.5597 40.4966 9.09202 40.4997 9.648V38.4C40.4966 38.9561 40.2744 39.4883 39.8813 39.8814C39.4881 40.2746 38.9558 40.4968 38.3997 40.5H32.3997C32.0019 40.5 31.6205 40.6581 31.3391 40.9394C31.0578 41.2206 30.8997 41.6022 30.8997 42C30.8997 42.3978 31.0578 42.7794 31.3391 43.0606C31.6205 43.3419 32.0019 43.5 32.3997 43.5H38.3997C39.7514 43.4968 41.0468 42.9585 42.0026 42.0027C42.9582 41.0471 43.4966 39.7517 43.4997 38.4V9.696C43.4966 8.34437 42.9582 7.04901 42.0026 6.09326C41.0468 5.13752 39.7514 4.59916 38.3997 4.596Z" fill="#1D1C1D"/>
<path d="M23.832 37.344C23.547 37.0877 23.1745 36.9503 22.7914 36.9599C22.4082 36.9695 22.0432 37.1255 21.7715 37.3958C21.4996 37.6661 21.3415 38.0301 21.3298 38.4132C21.318 38.7963 21.4533 39.1695 21.708 39.456L22.752 40.5H9.6C9.04401 40.4969 8.5117 40.2746 8.11856 39.8814C7.7254 39.4883 7.50315 38.9559 7.5 38.4V9.69596C7.50315 9.13997 7.7254 8.60765 8.11856 8.21452C8.5117 7.82137 9.04401 7.59911 9.6 7.59596H15.6C15.9978 7.59596 16.3794 7.43792 16.6606 7.15661C16.9419 6.87532 17.1 6.49378 17.1 6.09595C17.1 5.69813 16.9419 5.31659 16.6606 5.0353C16.3794 4.75399 15.9978 4.59595 15.6 4.59595H9.6C8.24836 4.59913 6.95301 5.13746 5.99725 6.09322C5.0415 7.04896 4.50316 8.34433 4.5 9.69596V38.4C4.50316 39.7517 5.0415 41.0469 5.99725 42.0027C6.95301 42.9585 8.24836 43.4969 9.6 43.5H22.8L21.756 44.544C21.5487 44.753 21.4075 45.0183 21.3501 45.3069C21.2925 45.5957 21.3213 45.8948 21.4324 46.1673C21.5437 46.4397 21.7327 46.6736 21.9759 46.8393C22.219 47.0052 22.5057 47.0958 22.8 47.1C22.9969 47.1014 23.1921 47.0628 23.3736 46.9865C23.5552 46.9101 23.7193 46.7978 23.856 46.656L27.456 43.056C27.5956 42.9167 27.7065 42.7511 27.7821 42.5688C27.8577 42.3866 27.8967 42.1913 27.8967 41.994C27.8967 41.7966 27.8577 41.6013 27.7821 41.4191C27.7065 41.2368 27.5956 41.0714 27.456 40.932L23.832 37.344Z" fill="#1D1C1D"/>
<path d="M22.2841 14.0278C21.9099 13.9789 21.5311 14.0764 21.2271 14.3C20.923 14.5236 20.7169 14.856 20.6521 15.2278L20.2561 17.9998H16.7281C16.3462 17.9998 15.9799 18.1515 15.7099 18.4216C15.4398 18.6916 15.2881 19.0579 15.2881 19.4398C15.2881 19.8217 15.4398 20.188 15.7099 20.458C15.9799 20.728 16.3462 20.8798 16.7281 20.8798H19.8361L19.0801 25.9918H15.6001C15.4008 25.9735 15.1998 25.9971 15.01 26.0608C14.8203 26.1246 14.646 26.2272 14.4981 26.3622C14.3503 26.497 14.2321 26.6614 14.1513 26.8446C14.0705 27.0277 14.0288 27.2256 14.0288 27.4258C14.0288 27.6259 14.0705 27.8239 14.1513 28.0071C14.2321 28.1902 14.3503 28.3545 14.4981 28.4895C14.646 28.6243 14.8203 28.7271 15.01 28.7908C15.1998 28.8546 15.4008 28.8781 15.6001 28.8598H18.6241L18.1561 32.3998C18.1041 32.7745 18.2004 33.1548 18.4245 33.4596C18.6486 33.7644 18.9829 33.9697 19.3561 34.0318H19.5721C19.9117 34.0309 20.2401 33.91 20.4993 33.6904C20.7583 33.4708 20.9314 33.1666 20.9881 32.8318L21.6001 28.8598H25.3921L24.8401 32.3998C24.7881 32.7745 24.8844 33.1548 25.1085 33.4596C25.3326 33.7644 25.6669 33.9697 26.0401 34.0318H26.2561C26.5957 34.0309 26.9241 33.91 27.1833 33.6904C27.4423 33.4708 27.6154 33.1666 27.6721 32.8318L28.2481 28.9318H31.2601C31.6177 28.8991 31.9503 28.7338 32.1924 28.4685C32.4346 28.2031 32.5687 27.8569 32.5687 27.4978C32.5687 27.1386 32.4346 26.7924 32.1924 26.5272C31.9503 26.2618 31.6177 26.0965 31.2601 26.0638H28.6801L29.4241 20.9518H32.4001C32.7916 20.9518 33.1669 20.7963 33.4438 20.5195C33.7206 20.2426 33.8762 19.8673 33.8762 19.4758C33.8762 19.0843 33.7206 18.7089 33.4438 18.4321C33.1669 18.1554 32.7916 17.9998 32.4001 17.9998H29.8801L30.2281 15.6598C30.2802 15.2851 30.1839 14.9048 29.9598 14.6C29.7355 14.2952 29.4013 14.0899 29.0281 14.0278C28.6548 13.976 28.276 14.0727 27.973 14.297C27.6702 14.5214 27.4674 14.8556 27.4081 15.2278L26.9401 17.9998H23.1601L23.4961 15.6598C23.551 15.2827 23.4544 14.8993 23.2272 14.5935C23.0001 14.2876 22.6609 14.0842 22.2841 14.0278ZM26.5201 20.8798L25.7761 25.9918H21.9841L22.8001 20.8798H26.5201Z" fill="#1D1C1D"/>
</g>
<defs>
<clipPath id="clip0_1_303">
<rect width="48" height="48" fill="white"/>
</clipPath>
</defs>
</svg>
